<?xml version="1.0" standalone="no"?>
<!DOCTYPE svg PUBLIC "-//W3C//DTD SVG 20010904//EN"
 "http://www.w3.org/TR/2001/REC-SVG-20010904/DTD/svg10.dtd">
<svg version="1.0" xmlns="http://www.w3.org/2000/svg"
 width="540.000000pt" height="540.000000pt" viewBox="0 0 540.000000 540.000000"
 preserveAspectRatio="xMidYMid meet">
<metadata>
Created by potrace 1.11, written by Peter Selinger 2001-2013
</metadata>
<g transform="translate(0.000000,540.000000) scale(0.100000,-0.100000)"
fill="#000000" stroke="none">
<path d="M2447 5389 c-49 -5 -131 -16 -183 -24 -51 -8 -107 -15 -124 -15 -16
0 -30 -4 -30 -10 0 -5 -9 -10 -19 -10 -11 0 -75 -16 -143 -36 -68 -20 -148
-43 -178 -51 -30 -9 -57 -19 -60 -23 -3 -4 -41 -22 -85 -40 -44 -18 -89 -39
-100 -47 -11 -7 -27 -13 -37 -13 -10 0 -18 -3 -18 -8 0 -4 -47 -32 -105 -61
-58 -30 -105 -57 -105 -62 0 -4 -8 -10 -18 -14 -11 -3 -43 -23 -72 -45 -30
-22 -62 -40 -72 -40 -10 0 -18 -6 -18 -13 0 -7 -26 -32 -57 -55 -71 -50 -124
-98 -245 -221 -129 -130 -157 -161 -203 -225 -22 -30 -46 -55 -52 -56 -7 0
-13 -7 -13 -16 0 -14 -77 -131 -107 -162 -7 -7 -13 -17 -13 -22 0 -5 -20 -44
-45 -86 -25 -41 -45 -80 -45 -85 0 -5 -4 -9 -10 -9 -5 0 -10 -7 -10 -15 0 -8
-20 -56 -45 -106 -25 -51 -45 -98 -45 -105 0 -8 -4 -14 -10 -14 -5 0 -12 -12
-16 -27 -3 -16 -23 -83 -45 -150 -21 -67 -41 -138 -45 -158 -3 -19 -10 -35
-14 -35 -4 0 -10 -24 -13 -52 -3 -29 -15 -114 -26 -188 -30 -194 -30 -596 0
-790 11 -74 23 -159 26 -187 3 -29 9 -53 13 -53 4 0 11 -16 14 -35 4 -20 25
-91 47 -159 21 -68 39 -130 39 -138 0 -8 9 -25 20 -38 11 -13 20 -28 20 -34 0
-6 18 -48 40 -94 22 -45 40 -89 40 -97 0 -8 4 -15 9 -15 8 0 17 -16 86 -150
16 -30 31 -57 35 -60 9 -8 100 -138 100 -143 0 -6 45 -61 83 -100 15 -16 27
-33 27 -38 0 -5 21 -31 48 -57 26 -27 56 -60 68 -73 11 -13 39 -41 62 -61 22
-21 45 -43 49 -50 4 -7 25 -26 46 -41 20 -16 47 -38 60 -51 35 -35 133 -106
145 -106 7 0 12 -4 12 -8 0 -10 93 -79 128 -95 15 -6 36 -20 47 -29 28 -24
151 -88 169 -88 8 0 21 -6 28 -13 35 -33 198 -107 237 -107 12 0 21 -4 21 -10
0 -15 246 -90 329 -100 41 -6 77 -14 81 -19 3 -6 68 -19 145 -30 113 -17 190
-21 400 -21 210 0 287 4 400 21 77 11 142 25 146 31 4 5 38 13 76 18 74 8 333
85 333 99 0 5 16 11 35 14 40 7 199 79 221 101 8 9 23 16 31 16 20 0 183 91
183 102 0 4 6 8 13 8 11 0 115 69 148 98 8 7 33 25 55 40 109 71 424 379 424
413 0 10 7 19 15 19 8 0 35 28 60 62 25 35 50 69 57 77 31 37 98 144 98 157 0
8 4 14 9 14 5 0 16 12 24 28 8 15 29 53 46 85 17 32 31 64 31 72 0 7 6 20 13
27 26 26 107 208 107 241 0 9 4 17 9 17 5 0 11 8 14 18 2 9 21 71 41 137 21
66 42 156 47 200 6 44 14 82 18 85 22 14 46 269 46 495 0 226 -24 481 -46 495
-4 3 -12 41 -18 85 -5 44 -26 134 -47 200 -20 66 -39 128 -41 138 -3 9 -9 17
-14 17 -5 0 -9 9 -9 20 0 22 -8 43 -58 153 -20 42 -39 77 -43 77 -5 0 -13 17
-19 39 -12 44 -88 181 -101 181 -5 0 -9 6 -9 14 0 17 -87 149 -101 154 -5 2
-9 10 -9 17 0 8 -6 20 -12 27 -7 7 -31 36 -53 63 -22 28 -52 64 -67 80 -16 17
-38 45 -51 62 -12 18 -28 33 -34 33 -7 0 -13 3 -13 8 0 10 -215 222 -226 222
-2 0 -27 18 -55 40 -28 22 -55 40 -60 40 -5 0 -9 7 -9 15 0 8 -5 15 -12 15
-11 0 -148 87 -158 101 -3 4 -50 31 -105 59 -55 29 -102 56 -105 59 -3 3 -18
11 -35 18 -69 26 -200 87 -205 94 -3 4 -26 13 -50 18 -25 6 -88 24 -140 41
-52 16 -122 36 -155 42 -33 7 -62 15 -65 18 -3 3 -79 17 -170 29 -185 26 -502
36 -653 20z"/>
</g>
</svg>
